<?xml version="1.0" standalone="no"?>
<!DOCTYPE svg PUBLIC "-//W3C//DTD SVG 20010904//EN"
 "http://www.w3.org/TR/2001/REC-SVG-20010904/DTD/svg10.dtd">
<svg version="1.0" xmlns="http://www.w3.org/2000/svg"
 width="447.000000pt" height="447.000000pt" viewBox="0 0 447.000000 447.000000"
 preserveAspectRatio="xMidYMid meet">
<metadata>
Created by potrace 1.16, written by Peter Selinger 2001-2019
</metadata>
<g transform="translate(0.000000,447.000000) scale(0.100000,-0.100000)"
fill="#000000" stroke="none">
<path d="M2000 4459 c-492 -56 -952 -271 -1309 -614 -596 -572 -823 -1391
-606 -2192 233 -865 975 -1513 1863 -1627 141 -18 425 -21 552 -6 790 96 1474
606 1784 1332 128 301 181 562 180 893 0 355 -66 646 -220 964 -186 385 -486
717 -854 944 -255 157 -596 273 -902 306 -112 13 -378 12 -488 0z m1480 -1414
c0 -8 -1124 -942 -1161 -964 -51 -31 -107 -28 -159 10 -48 35 -1090 898 -1130
935 l-25 24 1238 0 c680 0 1237 -2 1237 -5z m-1664 -881 c2 -6 -675 -491 -926
-663 -20 -13 -20 -12 -20 723 l0 736 472 -393 c259 -216 473 -397 474 -403z
m1810 -672 c-5 -5 -942 653 -951 668 -3 5 210 187 472 405 l478 397 3 -733 c1
-403 0 -734 -2 -737z m-1446 427 c93 -35 155 -17 291 85 l72 55 26 -18 c169
-118 852 -599 870 -613 23 -17 -12 -18 -1190 -18 -1051 0 -1211 2 -1199 14 8
8 213 154 454 324 l439 309 91 -59 c50 -32 116 -68 146 -79z"/>
</g>
</svg>
