<?xml version="1.0" standalone="no"?>
<!DOCTYPE svg PUBLIC "-//W3C//DTD SVG 20010904//EN"
 "http://www.w3.org/TR/2001/REC-SVG-20010904/DTD/svg10.dtd">
<svg version="1.0" xmlns="http://www.w3.org/2000/svg"
 width="451.000000pt" height="451.000000pt" viewBox="0 0 451.000000 451.000000"
 preserveAspectRatio="xMidYMid meet">
<metadata>
Created by potrace 1.16, written by Peter Selinger 2001-2019
</metadata>
<g transform="translate(0.000000,451.000000) scale(0.100000,-0.100000)"
fill="#000000" stroke="none">
<path d="M2099 4500 c-443 -33 -862 -193 -1211 -462 -703 -543 -1025 -1443
-823 -2303 192 -815 823 -1454 1641 -1661 220 -55 332 -69 574 -68 231 0 338
13 524 59 157 40 268 81 423 155 455 218 819 579 1043 1035 162 328 234 639
234 1005 0 211 -15 343 -60 529 -158 648 -614 1207 -1219 1495 -342 163 -759
243 -1126 216z m334 -855 c311 -54 579 -258 723 -550 63 -128 90 -225 105
-379 11 -99 9 -127 -10 -259 -72 -495 -274 -938 -609 -1337 -113 -135 -323
-327 -366 -335 -50 -10 -84 12 -229 153 -163 159 -276 292 -382 452 -254 381
-380 760 -410 1230 -27 422 214 794 624 960 177 72 379 96 554 65z"/>
<path d="M2163 3220 c-291 -52 -506 -320 -490 -610 17 -310 270 -550 580 -550
170 0 298 51 412 165 183 182 225 447 109 685 -69 140 -221 262 -375 299 -69
16 -177 21 -236 11z"/>
</g>
</svg>
