<?xml version="1.0" standalone="no"?>
<!DOCTYPE svg PUBLIC "-//W3C//DTD SVG 20010904//EN"
 "http://www.w3.org/TR/2001/REC-SVG-20010904/DTD/svg10.dtd">
<svg version="1.0" xmlns="http://www.w3.org/2000/svg"
 width="449.000000pt" height="449.000000pt" viewBox="0 0 449.000000 449.000000"
 preserveAspectRatio="xMidYMid meet">
<metadata>
Created by potrace 1.16, written by Peter Selinger 2001-2019
</metadata>
<g transform="translate(0.000000,449.000000) scale(0.100000,-0.100000)"
fill="#000000" stroke="none">
<path d="M1950 4464 c-851 -120 -1555 -704 -1824 -1515 -215 -647 -129 -1356
233 -1911 228 -349 529 -617 896 -798 201 -99 393 -162 630 -205 120 -23 477
-31 616 -16 753 87 1412 549 1752 1227 378 755 285 1692 -235 2366 -344 445
-820 733 -1388 839 -153 28 -522 36 -680 13z m509 -1045 c240 -40 489 -165
670 -335 222 -208 354 -479 391 -803 15 -124 8 -147 -45 -157 -59 -11 -73 11
-85 134 -47 455 -385 859 -826 987 -44 13 -132 31 -195 40 -63 9 -120 21 -126
27 -7 6 -13 23 -13 39 0 24 8 33 53 59 37 21 61 28 82 25 17 -3 59 -10 94 -16z
m-962 -369 c41 -25 59 -62 116 -235 67 -203 97 -312 97 -353 0 -50 -29 -105
-104 -194 -76 -91 -86 -121 -57 -181 35 -73 181 -258 286 -362 143 -144 318
-265 383 -265 29 0 43 10 100 71 81 86 136 121 194 121 48 0 479 -131 543
-166 69 -37 88 -104 65 -227 -24 -128 -108 -233 -233 -293 -103 -50 -317 -121
-325 -109 -4 6 -38 13 -77 17 -226 22 -459 139 -753 375 -352 284 -709 765
-782 1055 -24 97 -27 255 -5 341 40 157 150 313 263 373 103 55 229 69 289 32z
m939 1 c340 -70 634 -374 708 -733 22 -107 21 -159 -5 -192 -21 -27 -62 -35
-75 -15 -3 6 -15 60 -25 120 -39 228 -138 404 -303 535 -122 97 -302 172 -456
190 -34 4 -68 13 -76 21 -17 18 -18 65 -2 81 18 18 130 14 234 -7z m-88 -356
c228 -54 432 -262 472 -484 9 -50 8 -65 -5 -90 -21 -41 -30 -44 -65 -26 -33
17 -37 24 -69 131 -53 176 -178 294 -376 353 -52 15 -77 28 -92 49 l-21 29 26
27 c31 30 44 31 130 11z"/>
</g>
</svg>
